<svg width="217" height="76" viewBox="0 0 217 76" fill="none" xmlns="http://www.w3.org/2000/svg">
<rect x="0.5" y="0.5" width="216" height="75" rx="1.5" stroke="white"/>
<rect x="20" y="47.5" width="48" height="11" rx="1" fill="white"/>
<rect x="23" y="52.5" width="40" height="1" fill="url(#paint0_linear_864_4063)"/>
<circle cx="62.5" cy="53" r="2.5" fill="#1E7ADF"/>
<rect x="24" y="33.5" width="48" height="11" rx="1" fill="white"/>
<rect x="27" y="38.5" width="40" height="1" fill="url(#paint1_linear_864_4063)"/>
<circle cx="66.5" cy="39" r="2.5" fill="#1E7ADF"/>
<rect x="16" y="19.5" width="48" height="11" rx="1" fill="#9CC3F9"/>
<rect x="19" y="24.5" width="40" height="1" fill="url(#paint2_linear_864_4063)"/>
<circle cx="58.5" cy="25" r="2.5" fill="#1E7ADF"/>
<path d="M93.152 36H87.296C85.296 36 83.808 35.6 82.832 34.8C81.872 34 81.392 32.768 81.392 31.104V23.64C81.392 21.976 81.872 20.744 82.832 19.944C83.808 19.128 85.296 18.72 87.296 18.72H93.152C93.456 18.72 93.672 18.792 93.8 18.936C93.944 19.064 94.016 19.28 94.016 19.584V22.488C94.016 22.792 93.944 23.016 93.8 23.16C93.672 23.288 93.456 23.352 93.152 23.352H88.328C87.832 23.352 87.464 23.456 87.224 23.664C86.984 23.856 86.864 24.152 86.864 24.552V30.264C86.864 30.664 86.984 30.96 87.224 31.152C87.464 31.328 87.832 31.416 88.328 31.416H93.152C93.456 31.416 93.672 31.488 93.8 31.632C93.944 31.76 94.016 31.976 94.016 32.28V35.136C94.016 35.44 93.944 35.664 93.8 35.808C93.672 35.936 93.456 36 93.152 36ZM102.99 23.76L101.862 27.408H105.63L104.502 23.76C104.438 23.616 104.366 23.512 104.286 23.448C104.222 23.384 104.142 23.352 104.046 23.352H103.446C103.35 23.352 103.262 23.384 103.182 23.448C103.118 23.512 103.054 23.616 102.99 23.76ZM101.622 35.136C101.622 35.44 101.55 35.664 101.406 35.808C101.278 35.936 101.062 36 100.758 36H97.2303C96.9263 36 96.7023 35.936 96.5583 35.808C96.4303 35.664 96.3663 35.44 96.3663 35.136V28.8C96.3663 28.32 96.4383 27.768 96.5823 27.144C96.7423 26.52 96.9823 25.792 97.3023 24.96L99.3903 19.512C99.4863 19.24 99.6303 19.04 99.8223 18.912C100.03 18.784 100.294 18.72 100.614 18.72H107.07C107.374 18.72 107.622 18.784 107.814 18.912C108.022 19.04 108.174 19.24 108.27 19.512L110.358 24.96C110.678 25.792 110.91 26.52 111.054 27.144C111.214 27.768 111.294 28.32 111.294 28.8V35.136C111.294 35.44 111.222 35.664 111.078 35.808C110.95 35.936 110.734 36 110.43 36H106.806C106.486 36 106.246 35.936 106.086 35.808C105.942 35.664 105.87 35.44 105.87 35.136V31.776H101.622V35.136ZM121.457 36H117.569C117.265 36 117.041 35.936 116.897 35.808C116.769 35.664 116.705 35.44 116.705 35.136V23.352H113.177C112.873 23.352 112.649 23.288 112.505 23.16C112.377 23.016 112.313 22.792 112.313 22.488V19.584C112.313 19.28 112.377 19.064 112.505 18.936C112.649 18.792 112.873 18.72 113.177 18.72H125.849C126.153 18.72 126.369 18.792 126.497 18.936C126.641 19.064 126.713 19.28 126.713 19.584V22.488C126.713 22.792 126.641 23.016 126.497 23.16C126.369 23.288 126.153 23.352 125.849 23.352H122.321V35.136C122.321 35.44 122.249 35.664 122.105 35.808C121.977 35.936 121.761 36 121.457 36ZM134.35 23.76L133.222 27.408H136.99L135.862 23.76C135.798 23.616 135.726 23.512 135.646 23.448C135.582 23.384 135.502 23.352 135.406 23.352H134.806C134.71 23.352 134.622 23.384 134.542 23.448C134.478 23.512 134.414 23.616 134.35 23.76ZM132.982 35.136C132.982 35.44 132.91 35.664 132.766 35.808C132.638 35.936 132.422 36 132.118 36H128.59C128.286 36 128.062 35.936 127.918 35.808C127.79 35.664 127.726 35.44 127.726 35.136V28.8C127.726 28.32 127.798 27.768 127.942 27.144C128.102 26.52 128.342 25.792 128.662 24.96L130.75 19.512C130.846 19.24 130.99 19.04 131.182 18.912C131.39 18.784 131.654 18.72 131.974 18.72H138.43C138.734 18.72 138.982 18.784 139.174 18.912C139.382 19.04 139.534 19.24 139.63 19.512L141.718 24.96C142.038 25.792 142.27 26.52 142.414 27.144C142.574 27.768 142.654 28.32 142.654 28.8V35.136C142.654 35.44 142.582 35.664 142.438 35.808C142.31 35.936 142.094 36 141.79 36H138.166C137.846 36 137.606 35.936 137.446 35.808C137.302 35.664 137.23 35.44 137.23 35.136V31.776H132.982V35.136ZM158.697 36H146.481C146.177 36 145.953 35.936 145.809 35.808C145.681 35.664 145.617 35.44 145.617 35.136V19.584C145.617 19.28 145.681 19.064 145.809 18.936C145.953 18.792 146.177 18.72 146.481 18.72H150.201C150.505 18.72 150.721 18.792 150.849 18.936C150.993 19.064 151.065 19.28 151.065 19.584V31.464H154.353V27.576C154.353 27.272 154.417 27.056 154.545 26.928C154.689 26.784 154.913 26.712 155.217 26.712H158.697C159.001 26.712 159.217 26.784 159.345 26.928C159.489 27.056 159.561 27.272 159.561 27.576V35.136C159.561 35.44 159.489 35.664 159.345 35.808C159.217 35.936 159.001 36 158.697 36ZM176.944 31.464C176.944 32.2 176.832 32.872 176.608 33.48C176.4 34.072 176.016 34.584 175.456 35.016C174.912 35.432 174.152 35.76 173.176 36C172.216 36.24 170.992 36.36 169.504 36.36C168.016 36.36 166.784 36.24 165.808 36C164.832 35.76 164.064 35.432 163.504 35.016C162.96 34.584 162.576 34.072 162.352 33.48C162.144 32.872 162.04 32.2 162.04 31.464V23.28C162.04 22.544 162.144 21.88 162.352 21.288C162.576 20.68 162.96 20.16 163.504 19.728C164.064 19.296 164.832 18.96 165.808 18.72C166.784 18.48 168.016 18.36 169.504 18.36C170.992 18.36 172.216 18.48 173.176 18.72C174.152 18.96 174.912 19.296 175.456 19.728C176.016 20.16 176.4 20.68 176.608 21.288C176.832 21.88 176.944 22.544 176.944 23.28V31.464ZM167.488 30.6C167.488 30.92 167.608 31.192 167.848 31.416C168.088 31.624 168.64 31.728 169.504 31.728C170.368 31.728 170.92 31.624 171.16 31.416C171.4 31.192 171.52 30.92 171.52 30.6V24.144C171.52 23.84 171.4 23.584 171.16 23.376C170.92 23.152 170.368 23.04 169.504 23.04C168.64 23.04 168.088 23.152 167.848 23.376C167.608 23.584 167.488 23.84 167.488 24.144V30.6ZM193.2 36H185.64C183.64 36 182.152 35.6 181.176 34.8C180.216 34 179.736 32.768 179.736 31.104V23.616C179.736 21.952 180.216 20.72 181.176 19.92C182.152 19.12 183.64 18.72 185.64 18.72H191.64C191.944 18.72 192.16 18.792 192.288 18.936C192.432 19.064 192.504 19.28 192.504 19.584V22.488C192.504 22.792 192.432 23.016 192.288 23.16C192.16 23.288 191.944 23.352 191.64 23.352H186.648C186.152 23.352 185.784 23.456 185.544 23.664C185.304 23.856 185.184 24.152 185.184 24.552V30.288C185.184 30.688 185.272 30.984 185.448 31.176C185.64 31.368 185.92 31.464 186.288 31.464H188.616V27.72C188.616 27.416 188.68 27.2 188.808 27.072C188.952 26.928 189.176 26.856 189.48 26.856H193.2C193.504 26.856 193.72 26.928 193.848 27.072C193.992 27.2 194.064 27.416 194.064 27.72V35.136C194.064 35.44 193.992 35.664 193.848 35.808C193.72 35.936 193.504 36 193.2 36ZM93.152 58H87.296C85.296 58 83.808 57.6 82.832 56.8C81.872 56 81.392 54.768 81.392 53.104V45.64C81.392 43.976 81.872 42.744 82.832 41.944C83.808 41.128 85.296 40.72 87.296 40.72H93.152C93.456 40.72 93.672 40.792 93.8 40.936C93.944 41.064 94.016 41.28 94.016 41.584V44.488C94.016 44.792 93.944 45.016 93.8 45.16C93.672 45.288 93.456 45.352 93.152 45.352H88.328C87.832 45.352 87.464 45.456 87.224 45.664C86.984 45.856 86.864 46.152 86.864 46.552V52.264C86.864 52.664 86.984 52.96 87.224 53.152C87.464 53.328 87.832 53.416 88.328 53.416H93.152C93.456 53.416 93.672 53.488 93.8 53.632C93.944 53.76 94.016 53.976 94.016 54.28V57.136C94.016 57.44 93.944 57.664 93.8 57.808C93.672 57.936 93.456 58 93.152 58ZM102.15 45.04V48.112H103.95C104.366 48.112 104.646 48.008 104.79 47.8C104.934 47.576 105.006 47.304 105.006 46.984V46.168C105.006 45.848 104.934 45.584 104.79 45.376C104.646 45.152 104.366 45.04 103.95 45.04H102.15ZM101.286 58H97.5903C97.2863 58 97.0623 57.936 96.9183 57.808C96.7903 57.664 96.7263 57.44 96.7263 57.136V41.584C96.7263 41.28 96.7903 41.064 96.9183 40.936C97.0623 40.792 97.2863 40.72 97.5903 40.72H105.582C107.374 40.72 108.606 41.096 109.278 41.848C109.966 42.584 110.31 43.544 110.31 44.728V45.832C110.31 46.504 110.206 47.08 109.998 47.56C109.806 48.024 109.462 48.36 108.966 48.568C109.83 48.664 110.526 49.016 111.054 49.624C111.598 50.232 111.87 51.04 111.87 52.048V57.136C111.87 57.44 111.798 57.664 111.654 57.808C111.526 57.936 111.31 58 111.006 58H107.286C106.982 58 106.758 57.936 106.614 57.808C106.486 57.664 106.422 57.44 106.422 57.136V53.464C106.422 53.112 106.35 52.856 106.206 52.696C106.078 52.52 105.846 52.432 105.51 52.432H102.15V57.136C102.15 57.44 102.078 57.664 101.934 57.808C101.806 57.936 101.59 58 101.286 58ZM120.826 45.76L119.698 49.408H123.466L122.338 45.76C122.274 45.616 122.202 45.512 122.122 45.448C122.058 45.384 121.978 45.352 121.882 45.352H121.282C121.186 45.352 121.098 45.384 121.018 45.448C120.954 45.512 120.89 45.616 120.826 45.76ZM119.458 57.136C119.458 57.44 119.386 57.664 119.242 57.808C119.114 57.936 118.898 58 118.594 58H115.066C114.762 58 114.538 57.936 114.394 57.808C114.266 57.664 114.202 57.44 114.202 57.136V50.8C114.202 50.32 114.274 49.768 114.418 49.144C114.578 48.52 114.818 47.792 115.138 46.96L117.226 41.512C117.322 41.24 117.466 41.04 117.658 40.912C117.866 40.784 118.13 40.72 118.45 40.72H124.906C125.21 40.72 125.458 40.784 125.65 40.912C125.858 41.04 126.01 41.24 126.106 41.512L128.194 46.96C128.514 47.792 128.746 48.52 128.89 49.144C129.05 49.768 129.13 50.32 129.13 50.8V57.136C129.13 57.44 129.058 57.664 128.914 57.808C128.786 57.936 128.57 58 128.266 58H124.642C124.322 58 124.082 57.936 123.922 57.808C123.778 57.664 123.706 57.44 123.706 57.136V53.776H119.458V57.136ZM136.678 58H132.958C132.654 58 132.43 57.936 132.286 57.808C132.158 57.664 132.094 57.44 132.094 57.136V41.584C132.094 41.28 132.158 41.064 132.286 40.936C132.43 40.792 132.654 40.72 132.958 40.72H143.661C143.966 40.72 144.182 40.792 144.31 40.936C144.454 41.064 144.526 41.28 144.526 41.584V44.44C144.526 44.744 144.454 44.968 144.31 45.112C144.182 45.24 143.966 45.304 143.661 45.304H137.542V47.8H141.718C142.022 47.8 142.238 47.872 142.366 48.016C142.51 48.144 142.582 48.36 142.582 48.664V51.544C142.582 51.848 142.51 52.072 142.366 52.216C142.238 52.344 142.022 52.408 141.718 52.408H137.542V57.136C137.542 57.44 137.47 57.664 137.326 57.808C137.198 57.936 136.982 58 136.678 58ZM155.089 58H151.201C150.897 58 150.673 57.936 150.529 57.808C150.401 57.664 150.337 57.44 150.337 57.136V45.352H146.809C146.505 45.352 146.281 45.288 146.137 45.16C146.009 45.016 145.945 44.792 145.945 44.488V41.584C145.945 41.28 146.009 41.064 146.137 40.936C146.281 40.792 146.505 40.72 146.809 40.72H159.481C159.785 40.72 160.001 40.792 160.129 40.936C160.273 41.064 160.345 41.28 160.345 41.584V44.488C160.345 44.792 160.273 45.016 160.129 45.16C160.001 45.288 159.785 45.352 159.481 45.352H155.953V57.136C155.953 57.44 155.881 57.664 155.737 57.808C155.609 57.936 155.393 58 155.089 58ZM174.679 58H163.543C163.239 58 163.015 57.936 162.871 57.808C162.743 57.664 162.679 57.44 162.679 57.136V41.584C162.679 41.28 162.743 41.064 162.871 40.936C163.015 40.792 163.239 40.72 163.543 40.72H174.679C174.983 40.72 175.199 40.792 175.327 40.936C175.471 41.064 175.543 41.28 175.543 41.584V44.392C175.543 44.696 175.471 44.92 175.327 45.064C175.199 45.192 174.983 45.256 174.679 45.256H168.055V47.104H172.735C173.039 47.104 173.255 47.176 173.383 47.32C173.527 47.448 173.599 47.664 173.599 47.968V50.536C173.599 50.84 173.527 51.064 173.383 51.208C173.255 51.336 173.039 51.4 172.735 51.4H168.055V53.464H174.679C174.983 53.464 175.199 53.536 175.327 53.68C175.471 53.808 175.543 54.024 175.543 54.328V57.136C175.543 57.44 175.471 57.664 175.327 57.808C175.199 57.936 174.983 58 174.679 58ZM183.807 45.04V48.112H185.607C186.023 48.112 186.303 48.008 186.447 47.8C186.591 47.576 186.663 47.304 186.663 46.984V46.168C186.663 45.848 186.591 45.584 186.447 45.376C186.303 45.152 186.023 45.04 185.607 45.04H183.807ZM182.943 58H179.247C178.943 58 178.719 57.936 178.575 57.808C178.447 57.664 178.383 57.44 178.383 57.136V41.584C178.383 41.28 178.447 41.064 178.575 40.936C178.719 40.792 178.943 40.72 179.247 40.72H187.239C189.031 40.72 190.263 41.096 190.935 41.848C191.623 42.584 191.967 43.544 191.967 44.728V45.832C191.967 46.504 191.863 47.08 191.655 47.56C191.463 48.024 191.119 48.36 190.623 48.568C191.487 48.664 192.183 49.016 192.711 49.624C193.255 50.232 193.527 51.04 193.527 52.048V57.136C193.527 57.44 193.455 57.664 193.311 57.808C193.183 57.936 192.967 58 192.663 58H188.943C188.639 58 188.415 57.936 188.271 57.808C188.143 57.664 188.079 57.44 188.079 57.136V53.464C188.079 53.112 188.007 52.856 187.863 52.696C187.735 52.52 187.503 52.432 187.167 52.432H183.807V57.136C183.807 57.44 183.735 57.664 183.591 57.808C183.463 57.936 183.247 58 182.943 58Z" fill="white"/>
<defs>
<linearGradient id="paint0_linear_864_4063" x1="23" y1="53" x2="63" y2="53" gradientUnits="userSpaceOnUse">
<stop stop-color="white"/>
<stop offset="1" stop-color="#1E7ADF"/>
</linearGradient>
<linearGradient id="paint1_linear_864_4063" x1="27" y1="39" x2="67" y2="39" gradientUnits="userSpaceOnUse">
<stop stop-color="white"/>
<stop offset="1" stop-color="#1E7ADF"/>
</linearGradient>
<linearGradient id="paint2_linear_864_4063" x1="19" y1="25" x2="59" y2="25" gradientUnits="userSpaceOnUse">
<stop stop-color="#9CC3F9"/>
<stop offset="1" stop-color="#1E7ADF"/>
</linearGradient>
</defs>
</svg>
