<svg width="185" height="44" viewBox="0 0 185 44" fill="none" xmlns="http://www.w3.org/2000/svg">
<g clip-path="url(#clip0_921_11347)">
<rect x="4" y="31.5" width="48" height="11" rx="1" fill="white"/>
<rect x="7" y="36.5" width="40" height="1" fill="url(#paint0_linear_921_11347)"/>
<circle cx="46.5" cy="37" r="2.5" fill="#1E7ADF"/>
<rect x="8" y="17.5" width="48" height="11" rx="1" fill="white"/>
<rect x="11" y="22.5" width="40" height="1" fill="url(#paint1_linear_921_11347)"/>
<circle cx="50.5" cy="23" r="2.5" fill="#1E7ADF"/>
<rect y="3.5" width="48" height="11" rx="1" fill="#9CC3F9"/>
<rect x="3" y="8.5" width="40" height="1" fill="url(#paint2_linear_921_11347)"/>
<circle cx="42.5" cy="9" r="2.5" fill="#1E7ADF"/>
<path d="M77.152 20H71.296C69.296 20 67.808 19.6 66.832 18.8C65.872 18 65.392 16.768 65.392 15.104V7.64C65.392 5.976 65.872 4.744 66.832 3.944C67.808 3.128 69.296 2.72 71.296 2.72H77.152C77.456 2.72 77.672 2.792 77.8 2.936C77.944 3.064 78.016 3.28 78.016 3.584V6.488C78.016 6.792 77.944 7.016 77.8 7.16C77.672 7.288 77.456 7.352 77.152 7.352H72.328C71.832 7.352 71.464 7.456 71.224 7.664C70.984 7.856 70.864 8.152 70.864 8.552V14.264C70.864 14.664 70.984 14.96 71.224 15.152C71.464 15.328 71.832 15.416 72.328 15.416H77.152C77.456 15.416 77.672 15.488 77.8 15.632C77.944 15.76 78.016 15.976 78.016 16.28V19.136C78.016 19.44 77.944 19.664 77.8 19.808C77.672 19.936 77.456 20 77.152 20ZM86.9903 7.76L85.8623 11.408H89.6303L88.5023 7.76C88.4383 7.616 88.3663 7.512 88.2863 7.448C88.2223 7.384 88.1423 7.352 88.0463 7.352H87.4463C87.3503 7.352 87.2623 7.384 87.1823 7.448C87.1183 7.512 87.0543 7.616 86.9903 7.76ZM85.6223 19.136C85.6223 19.44 85.5503 19.664 85.4063 19.808C85.2783 19.936 85.0623 20 84.7583 20H81.2303C80.9263 20 80.7023 19.936 80.5583 19.808C80.4303 19.664 80.3663 19.44 80.3663 19.136V12.8C80.3663 12.32 80.4383 11.768 80.5823 11.144C80.7423 10.52 80.9823 9.792 81.3023 8.96L83.3903 3.512C83.4863 3.24 83.6303 3.04 83.8223 2.912C84.0303 2.784 84.2943 2.72 84.6143 2.72H91.0703C91.3743 2.72 91.6223 2.784 91.8143 2.912C92.0223 3.04 92.1743 3.24 92.2703 3.512L94.3583 8.96C94.6783 9.792 94.9103 10.52 95.0543 11.144C95.2143 11.768 95.2943 12.32 95.2943 12.8V19.136C95.2943 19.44 95.2223 19.664 95.0783 19.808C94.9503 19.936 94.7343 20 94.4303 20H90.8063C90.4863 20 90.2463 19.936 90.0863 19.808C89.9423 19.664 89.8703 19.44 89.8703 19.136V15.776H85.6223V19.136ZM105.457 20H101.569C101.265 20 101.041 19.936 100.897 19.808C100.769 19.664 100.705 19.44 100.705 19.136V7.352H97.1766C96.8726 7.352 96.6486 7.288 96.5046 7.16C96.3766 7.016 96.3126 6.792 96.3126 6.488V3.584C96.3126 3.28 96.3766 3.064 96.5046 2.936C96.6486 2.792 96.8726 2.72 97.1766 2.72H109.849C110.153 2.72 110.369 2.792 110.497 2.936C110.641 3.064 110.713 3.28 110.713 3.584V6.488C110.713 6.792 110.641 7.016 110.497 7.16C110.369 7.288 110.153 7.352 109.849 7.352H106.321V19.136C106.321 19.44 106.249 19.664 106.105 19.808C105.977 19.936 105.761 20 105.457 20ZM118.35 7.76L117.222 11.408H120.99L119.862 7.76C119.798 7.616 119.726 7.512 119.646 7.448C119.582 7.384 119.502 7.352 119.406 7.352H118.806C118.71 7.352 118.622 7.384 118.542 7.448C118.478 7.512 118.414 7.616 118.35 7.76ZM116.982 19.136C116.982 19.44 116.91 19.664 116.766 19.808C116.638 19.936 116.422 20 116.118 20H112.59C112.286 20 112.062 19.936 111.918 19.808C111.79 19.664 111.726 19.44 111.726 19.136V12.8C111.726 12.32 111.798 11.768 111.942 11.144C112.102 10.52 112.342 9.792 112.662 8.96L114.75 3.512C114.846 3.24 114.99 3.04 115.182 2.912C115.39 2.784 115.654 2.72 115.974 2.72H122.43C122.734 2.72 122.982 2.784 123.174 2.912C123.382 3.04 123.534 3.24 123.63 3.512L125.718 8.96C126.038 9.792 126.27 10.52 126.414 11.144C126.574 11.768 126.654 12.32 126.654 12.8V19.136C126.654 19.44 126.582 19.664 126.438 19.808C126.31 19.936 126.094 20 125.79 20H122.166C121.846 20 121.606 19.936 121.446 19.808C121.302 19.664 121.23 19.44 121.23 19.136V15.776H116.982V19.136ZM142.697 20H130.481C130.177 20 129.953 19.936 129.809 19.808C129.681 19.664 129.617 19.44 129.617 19.136V3.584C129.617 3.28 129.681 3.064 129.809 2.936C129.953 2.792 130.177 2.72 130.481 2.72H134.201C134.505 2.72 134.721 2.792 134.849 2.936C134.993 3.064 135.065 3.28 135.065 3.584V15.464H138.353V11.576C138.353 11.272 138.417 11.056 138.545 10.928C138.689 10.784 138.913 10.712 139.217 10.712H142.697C143.001 10.712 143.217 10.784 143.345 10.928C143.489 11.056 143.561 11.272 143.561 11.576V19.136C143.561 19.44 143.489 19.664 143.345 19.808C143.217 19.936 143.001 20 142.697 20ZM160.944 15.464C160.944 16.2 160.832 16.872 160.608 17.48C160.4 18.072 160.016 18.584 159.456 19.016C158.912 19.432 158.152 19.76 157.176 20C156.216 20.24 154.992 20.36 153.504 20.36C152.016 20.36 150.784 20.24 149.808 20C148.832 19.76 148.064 19.432 147.504 19.016C146.96 18.584 146.576 18.072 146.352 17.48C146.144 16.872 146.04 16.2 146.04 15.464V7.28C146.04 6.544 146.144 5.88 146.352 5.288C146.576 4.68 146.96 4.16 147.504 3.728C148.064 3.296 148.832 2.96 149.808 2.72C150.784 2.48 152.016 2.36 153.504 2.36C154.992 2.36 156.216 2.48 157.176 2.72C158.152 2.96 158.912 3.296 159.456 3.728C160.016 4.16 160.4 4.68 160.608 5.288C160.832 5.88 160.944 6.544 160.944 7.28V15.464ZM151.488 14.6C151.488 14.92 151.608 15.192 151.848 15.416C152.088 15.624 152.64 15.728 153.504 15.728C154.368 15.728 154.92 15.624 155.16 15.416C155.4 15.192 155.52 14.92 155.52 14.6V8.144C155.52 7.84 155.4 7.584 155.16 7.376C154.92 7.152 154.368 7.04 153.504 7.04C152.64 7.04 152.088 7.152 151.848 7.376C151.608 7.584 151.488 7.84 151.488 8.144V14.6ZM177.2 20H169.64C167.64 20 166.152 19.6 165.176 18.8C164.216 18 163.736 16.768 163.736 15.104V7.616C163.736 5.952 164.216 4.72 165.176 3.92C166.152 3.12 167.64 2.72 169.64 2.72H175.64C175.944 2.72 176.16 2.792 176.288 2.936C176.432 3.064 176.504 3.28 176.504 3.584V6.488C176.504 6.792 176.432 7.016 176.288 7.16C176.16 7.288 175.944 7.352 175.64 7.352H170.648C170.152 7.352 169.784 7.456 169.544 7.664C169.304 7.856 169.184 8.152 169.184 8.552V14.288C169.184 14.688 169.272 14.984 169.448 15.176C169.64 15.368 169.92 15.464 170.288 15.464H172.616V11.72C172.616 11.416 172.68 11.2 172.808 11.072C172.952 10.928 173.176 10.856 173.48 10.856H177.2C177.504 10.856 177.72 10.928 177.848 11.072C177.992 11.2 178.064 11.416 178.064 11.72V19.136C178.064 19.44 177.992 19.664 177.848 19.808C177.72 19.936 177.504 20 177.2 20ZM77.152 42H71.296C69.296 42 67.808 41.6 66.832 40.8C65.872 40 65.392 38.768 65.392 37.104V29.64C65.392 27.976 65.872 26.744 66.832 25.944C67.808 25.128 69.296 24.72 71.296 24.72H77.152C77.456 24.72 77.672 24.792 77.8 24.936C77.944 25.064 78.016 25.28 78.016 25.584V28.488C78.016 28.792 77.944 29.016 77.8 29.16C77.672 29.288 77.456 29.352 77.152 29.352H72.328C71.832 29.352 71.464 29.456 71.224 29.664C70.984 29.856 70.864 30.152 70.864 30.552V36.264C70.864 36.664 70.984 36.96 71.224 37.152C71.464 37.328 71.832 37.416 72.328 37.416H77.152C77.456 37.416 77.672 37.488 77.8 37.632C77.944 37.76 78.016 37.976 78.016 38.28V41.136C78.016 41.44 77.944 41.664 77.8 41.808C77.672 41.936 77.456 42 77.152 42ZM86.1503 29.04V32.112H87.9503C88.3663 32.112 88.6463 32.008 88.7903 31.8C88.9343 31.576 89.0063 31.304 89.0063 30.984V30.168C89.0063 29.848 88.9343 29.584 88.7903 29.376C88.6463 29.152 88.3663 29.04 87.9503 29.04H86.1503ZM85.2863 42H81.5903C81.2863 42 81.0623 41.936 80.9183 41.808C80.7903 41.664 80.7263 41.44 80.7263 41.136V25.584C80.7263 25.28 80.7903 25.064 80.9183 24.936C81.0623 24.792 81.2863 24.72 81.5903 24.72H89.5823C91.3743 24.72 92.6063 25.096 93.2783 25.848C93.9663 26.584 94.3103 27.544 94.3103 28.728V29.832C94.3103 30.504 94.2063 31.08 93.9983 31.56C93.8063 32.024 93.4623 32.36 92.9663 32.568C93.8303 32.664 94.5263 33.016 95.0543 33.624C95.5983 34.232 95.8703 35.04 95.8703 36.048V41.136C95.8703 41.44 95.7983 41.664 95.6543 41.808C95.5263 41.936 95.3103 42 95.0063 42H91.2863C90.9823 42 90.7583 41.936 90.6143 41.808C90.4863 41.664 90.4223 41.44 90.4223 41.136V37.464C90.4223 37.112 90.3503 36.856 90.2063 36.696C90.0783 36.52 89.8463 36.432 89.5103 36.432H86.1503V41.136C86.1503 41.44 86.0783 41.664 85.9343 41.808C85.8063 41.936 85.5903 42 85.2863 42ZM104.826 29.76L103.698 33.408H107.466L106.338 29.76C106.274 29.616 106.202 29.512 106.122 29.448C106.058 29.384 105.978 29.352 105.882 29.352H105.282C105.186 29.352 105.098 29.384 105.018 29.448C104.954 29.512 104.89 29.616 104.826 29.76ZM103.458 41.136C103.458 41.44 103.386 41.664 103.242 41.808C103.114 41.936 102.898 42 102.594 42H99.0663C98.7623 42 98.5383 41.936 98.3943 41.808C98.2663 41.664 98.2023 41.44 98.2023 41.136V34.8C98.2023 34.32 98.2743 33.768 98.4183 33.144C98.5783 32.52 98.8183 31.792 99.1383 30.96L101.226 25.512C101.322 25.24 101.466 25.04 101.658 24.912C101.866 24.784 102.13 24.72 102.45 24.72H108.906C109.21 24.72 109.458 24.784 109.65 24.912C109.858 25.04 110.01 25.24 110.106 25.512L112.194 30.96C112.514 31.792 112.746 32.52 112.89 33.144C113.05 33.768 113.13 34.32 113.13 34.8V41.136C113.13 41.44 113.058 41.664 112.914 41.808C112.786 41.936 112.57 42 112.266 42H108.642C108.322 42 108.082 41.936 107.922 41.808C107.778 41.664 107.706 41.44 107.706 41.136V37.776H103.458V41.136ZM120.678 42H116.958C116.654 42 116.43 41.936 116.286 41.808C116.158 41.664 116.094 41.44 116.094 41.136V25.584C116.094 25.28 116.158 25.064 116.286 24.936C116.43 24.792 116.654 24.72 116.958 24.72H127.661C127.966 24.72 128.182 24.792 128.31 24.936C128.454 25.064 128.526 25.28 128.526 25.584V28.44C128.526 28.744 128.454 28.968 128.31 29.112C128.182 29.24 127.966 29.304 127.661 29.304H121.542V31.8H125.718C126.022 31.8 126.238 31.872 126.366 32.016C126.51 32.144 126.582 32.36 126.582 32.664V35.544C126.582 35.848 126.51 36.072 126.366 36.216C126.238 36.344 126.022 36.408 125.718 36.408H121.542V41.136C121.542 41.44 121.47 41.664 121.326 41.808C121.198 41.936 120.982 42 120.678 42ZM139.089 42H135.201C134.897 42 134.673 41.936 134.529 41.808C134.401 41.664 134.337 41.44 134.337 41.136V29.352H130.809C130.505 29.352 130.281 29.288 130.137 29.16C130.009 29.016 129.945 28.792 129.945 28.488V25.584C129.945 25.28 130.009 25.064 130.137 24.936C130.281 24.792 130.505 24.72 130.809 24.72H143.481C143.785 24.72 144.001 24.792 144.129 24.936C144.273 25.064 144.345 25.28 144.345 25.584V28.488C144.345 28.792 144.273 29.016 144.129 29.16C144.001 29.288 143.785 29.352 143.481 29.352H139.953V41.136C139.953 41.44 139.881 41.664 139.737 41.808C139.609 41.936 139.393 42 139.089 42ZM158.679 42H147.543C147.239 42 147.015 41.936 146.871 41.808C146.743 41.664 146.679 41.44 146.679 41.136V25.584C146.679 25.28 146.743 25.064 146.871 24.936C147.015 24.792 147.239 24.72 147.543 24.72H158.679C158.983 24.72 159.199 24.792 159.327 24.936C159.471 25.064 159.543 25.28 159.543 25.584V28.392C159.543 28.696 159.471 28.92 159.327 29.064C159.199 29.192 158.983 29.256 158.679 29.256H152.055V31.104H156.735C157.039 31.104 157.255 31.176 157.383 31.32C157.527 31.448 157.599 31.664 157.599 31.968V34.536C157.599 34.84 157.527 35.064 157.383 35.208C157.255 35.336 157.039 35.4 156.735 35.4H152.055V37.464H158.679C158.983 37.464 159.199 37.536 159.327 37.68C159.471 37.808 159.543 38.024 159.543 38.328V41.136C159.543 41.44 159.471 41.664 159.327 41.808C159.199 41.936 158.983 42 158.679 42ZM167.807 29.04V32.112H169.607C170.023 32.112 170.303 32.008 170.447 31.8C170.591 31.576 170.663 31.304 170.663 30.984V30.168C170.663 29.848 170.591 29.584 170.447 29.376C170.303 29.152 170.023 29.04 169.607 29.04H167.807ZM166.943 42H163.247C162.943 42 162.719 41.936 162.575 41.808C162.447 41.664 162.383 41.44 162.383 41.136V25.584C162.383 25.28 162.447 25.064 162.575 24.936C162.719 24.792 162.943 24.72 163.247 24.72H171.239C173.031 24.72 174.263 25.096 174.935 25.848C175.623 26.584 175.967 27.544 175.967 28.728V29.832C175.967 30.504 175.863 31.08 175.655 31.56C175.463 32.024 175.119 32.36 174.623 32.568C175.487 32.664 176.183 33.016 176.711 33.624C177.255 34.232 177.527 35.04 177.527 36.048V41.136C177.527 41.44 177.455 41.664 177.311 41.808C177.183 41.936 176.967 42 176.663 42H172.943C172.639 42 172.415 41.936 172.271 41.808C172.143 41.664 172.079 41.44 172.079 41.136V37.464C172.079 37.112 172.007 36.856 171.863 36.696C171.735 36.52 171.503 36.432 171.167 36.432H167.807V41.136C167.807 41.44 167.735 41.664 167.591 41.808C167.463 41.936 167.247 42 166.943 42Z" fill="white"/>
</g>
<defs>
<linearGradient id="paint0_linear_921_11347" x1="7" y1="37" x2="47" y2="37" gradientUnits="userSpaceOnUse">
<stop stop-color="white"/>
<stop offset="1" stop-color="#1E7ADF"/>
</linearGradient>
<linearGradient id="paint1_linear_921_11347" x1="11" y1="23" x2="51" y2="23" gradientUnits="userSpaceOnUse">
<stop stop-color="white"/>
<stop offset="1" stop-color="#1E7ADF"/>
</linearGradient>
<linearGradient id="paint2_linear_921_11347" x1="3" y1="9" x2="43" y2="9" gradientUnits="userSpaceOnUse">
<stop stop-color="#9CC3F9"/>
<stop offset="1" stop-color="#1E7ADF"/>
</linearGradient>
<clipPath id="clip0_921_11347">
<rect width="185" height="44" rx="2" fill="white"/>
</clipPath>
</defs>
</svg>
